<svg xmlns="http://www.w3.org/2000/svg" xmlns:xlink="http://www.w3.org/1999/xlink" version="1.1" x="0px" y="0px" viewBox="0 0 100 125" enable-background="new 0 0 100 100" xml:space="preserve" fill="white">
	<path d="M74.756,39.024c-0.568-4.476-4.402-7.946-9.031-7.946c-4.418,0-8.16,3.23-8.945,7.454h-1.127  c-0.27,0-0.533,0.032-0.797,0.058c-2.27-2.467-5.523-4.017-9.133-4.017c-6.213,0-11.443,4.68-12.289,10.7h-2.17  c-6.52,0-11.824,5.304-11.824,11.823c0,6.521,5.305,11.825,11.824,11.825h23.277c6.52,0,11.824-5.305,11.824-11.825  c0-0.398-0.027-0.791-0.066-1.181h5.57c4.793,0,8.691-3.899,8.691-8.692C80.561,43.515,78.18,40.232,74.756,39.024z M54.541,65.922  H31.264c-4.865,0-8.824-3.959-8.824-8.825c0-4.865,3.959-8.823,8.824-8.823h3.553c0.816,0,1.482-0.653,1.5-1.471  c0.1-5.089,4.318-9.229,9.406-9.229c5.191,0,9.414,4.224,9.416,9.414c0,0.712,0.5,1.325,1.197,1.469  c4.072,0.841,7.029,4.475,7.029,8.641C63.365,61.963,59.406,65.922,54.541,65.922z M71.869,52.916h-6.283  c-1.271-3.336-4.012-6.006-7.502-7.102c-0.145-1.524-0.57-2.967-1.217-4.282h1.262c0.816,0,1.482-0.653,1.5-1.471  c0.064-3.299,2.799-5.983,6.096-5.983c3.367,0,6.105,2.737,6.105,6.103c0,0.712,0.5,1.325,1.195,1.469  c2.629,0.543,4.535,2.888,4.535,5.574C77.561,50.362,75.008,52.916,71.869,52.916z" />
</svg>
