<svg xmlns="http://www.w3.org/2000/svg" xmlns:xlink="http://www.w3.org/1999/xlink" version="1.1" x="0px" y="0px" viewBox="0 0 100 125" enable-background="new 0 0 100 100" xml:space="preserve" fill="white">
	<g>
		<path d="M65.182,33.639c-0.594-6.298-5.911-11.241-12.361-11.241c-6.212,0-11.442,4.68-12.289,10.7h-2.17   c-6.52,0-11.824,5.304-11.824,11.823c0,6.521,5.305,11.825,11.824,11.825h23.277c6.52,0,11.824-5.305,11.824-11.825   C73.463,39.735,70.043,35.165,65.182,33.639z M61.639,53.746H38.361c-4.865,0-8.824-3.959-8.824-8.825   c0-4.865,3.959-8.823,8.824-8.823h3.553c0.817,0,1.483-0.653,1.5-1.471c0.1-5.089,4.319-9.229,9.406-9.229   c5.191,0,9.415,4.224,9.416,9.414c0,0.712,0.5,1.325,1.197,1.469c4.073,0.841,7.029,4.475,7.029,8.641   C70.463,49.787,66.504,53.746,61.639,53.746z" />
		<circle cx="38.281" cy="61.336" r="1.242" />
		<circle cx="46.094" cy="61.336" r="1.242" />
		<circle cx="53.906" cy="61.336" r="1.242" />
		<circle cx="61.719" cy="61.336" r="1.242" />
		<circle cx="50.001" cy="66.344" r="1.242" />
		<circle cx="42.188" cy="66.344" r="1.242" />
		<circle cx="57.813" cy="66.344" r="1.242" />
		<circle cx="46.094" cy="71.353" r="1.242" />
		<circle cx="53.906" cy="71.353" r="1.242" />
		<circle cx="50" cy="76.36" r="1.242" />
	</g>
</svg>
