<svg xmlns="http://www.w3.org/2000/svg" xmlns:xlink="http://www.w3.org/1999/xlink" version="1.1" x="0px" y="0px" viewBox="0 0 100 125" enable-background="new 0 0 100 100" xml:space="preserve" fill="white">
	<g>
		<path d="M74.756,33.031c-0.568-4.476-4.402-7.946-9.031-7.946c-4.418,0-8.16,3.23-8.945,7.454h-1.127   c-0.27,0-0.533,0.032-0.797,0.058c-2.27-2.467-5.523-4.017-9.133-4.017c-6.213,0-11.443,4.68-12.289,10.7h-2.17   c-6.52,0-11.824,5.304-11.824,11.824c0,6.52,5.305,11.824,11.824,11.824h23.277c6.52,0,11.824-5.305,11.824-11.824   c0-0.399-0.027-0.792-0.066-1.181h5.57c4.793,0,8.691-3.899,8.691-8.692C80.561,37.521,78.18,34.239,74.756,33.031z M54.541,59.928   H31.264c-4.865,0-8.824-3.959-8.824-8.824c0-4.866,3.959-8.824,8.824-8.824h3.553c0.816,0,1.482-0.653,1.5-1.471   c0.1-5.089,4.318-9.229,9.406-9.229c5.191,0,9.414,4.224,9.416,9.414c0,0.712,0.5,1.325,1.197,1.469   c4.072,0.841,7.029,4.475,7.029,8.641C63.365,55.969,59.406,59.928,54.541,59.928z M71.869,46.922h-6.283   c-1.271-3.336-4.012-6.006-7.502-7.102c-0.145-1.524-0.57-2.967-1.217-4.282h1.262c0.816,0,1.482-0.653,1.5-1.471   c0.064-3.299,2.799-5.983,6.096-5.983c3.367,0,6.105,2.737,6.105,6.103c0,0.712,0.5,1.325,1.195,1.469   c2.629,0.543,4.535,2.888,4.535,5.574C77.561,44.369,75.008,46.922,71.869,46.922z" />
		<path d="M58.549,65.645c-0.709-0.428-1.633-0.199-2.059,0.51l-3.91,6.486c-0.428,0.711-0.201,1.633,0.51,2.059   c0.242,0.146,0.51,0.217,0.773,0.217c0.508,0,1.004-0.26,1.285-0.727l3.91-6.486C59.486,66.994,59.258,66.072,58.549,65.645z" />
		<path d="M49.936,65.645c-0.707-0.428-1.631-0.199-2.059,0.51l-3.91,6.486c-0.426,0.711-0.197,1.633,0.512,2.061   c0.242,0.145,0.51,0.215,0.773,0.215c0.508,0,1.004-0.26,1.285-0.727l3.91-6.486C50.873,66.994,50.645,66.072,49.936,65.645z" />
		<path d="M41.324,65.645c-0.709-0.428-1.631-0.199-2.059,0.51l-3.91,6.486c-0.426,0.711-0.197,1.633,0.512,2.061   c0.242,0.145,0.51,0.215,0.773,0.215c0.508,0,1.004-0.26,1.285-0.727l3.91-6.486C42.262,66.994,42.033,66.072,41.324,65.645z" />
		<path d="M32.713,65.645c-0.707-0.428-1.631-0.199-2.059,0.51l-3.91,6.486c-0.426,0.711-0.197,1.633,0.512,2.061   c0.242,0.145,0.51,0.215,0.773,0.215c0.508,0,1.004-0.26,1.285-0.727l3.91-6.486C33.65,66.994,33.422,66.072,32.713,65.645z" />
	</g>
</svg>
