<svg xmlns="http://www.w3.org/2000/svg" viewBox="0 0 36 45" x="0px" y="0px" fill="white">
	<title>
		Монтажная область 67
	</title>
	<path d="M34.11,17.11H32l1.16-2.28A.89.89,0,1,0,31.52,14l-1.59,3.1H24.19A6.09,6.09,0,0,0,23,14.25l4.06-4.06,3.31,1.07a.84.84,0,0,0,.27,0,.89.89,0,0,0,.85-.62.88.88,0,0,0-.57-1.12l-2.44-.79L30,7.24A.89.89,0,0,0,28.76,6L27.23,7.51l-.79-2.44a.88.88,0,0,0-1.12-.57.89.89,0,0,0-.58,1.12l1.07,3.31L21.75,13a6.09,6.09,0,0,0-2.86-1.18V6.07L22,4.48a.89.89,0,1,0-.82-1.59L18.89,4.05V1.89a.89.89,0,0,0-1.78,0V4.05L14.83,2.89A.89.89,0,1,0,14,4.48l3.1,1.59v5.74A6.09,6.09,0,0,0,14.25,13L10.19,8.93l1.07-3.31a.89.89,0,0,0-.58-1.12.88.88,0,0,0-1.12.57L8.77,7.51,7.24,6A.89.89,0,0,0,6,7.24L7.51,8.77l-2.44.79a.88.88,0,0,0-.57,1.12.89.89,0,0,0,.85.62.84.84,0,0,0,.27,0l3.31-1.07L13,14.25a6.09,6.09,0,0,0-1.18,2.86H6.07L4.48,14a.89.89,0,1,0-1.59.82l1.16,2.28H1.89a.89.89,0,0,0,0,1.78H4.05L2.89,21.17a.9.9,0,0,0,.39,1.21,1,1,0,0,0,.4.09.89.89,0,0,0,.8-.48l1.59-3.1h5.74A6.09,6.09,0,0,0,13,21.75L8.93,25.81,5.62,24.74a.89.89,0,0,0-1.12.58.88.88,0,0,0,.57,1.12l2.44.79L6,28.76A.89.89,0,0,0,6,30a.89.89,0,0,0,1.26,0l1.53-1.53.79,2.44a.89.89,0,0,0,.85.62.86.86,0,0,0,.27-.05.89.89,0,0,0,.58-1.12l-1.07-3.31L14.25,23a6.09,6.09,0,0,0,2.86,1.18v5.74L14,31.52a.89.89,0,0,0-.39,1.2.91.91,0,0,0,.8.49.86.86,0,0,0,.41-.1L17.11,32v2.16a.89.89,0,0,0,1.78,0V32l2.28,1.16a.86.86,0,0,0,.41.1.91.91,0,0,0,.8-.49.89.89,0,0,0-.39-1.2l-3.1-1.59V24.19A6.09,6.09,0,0,0,21.75,23l4.06,4.06-1.07,3.31a.89.89,0,0,0,.58,1.12.86.86,0,0,0,.27.05.89.89,0,0,0,.85-.62l.79-2.44L28.76,30A.89.89,0,0,0,30,30a.89.89,0,0,0,0-1.26l-1.53-1.53,2.44-.79a.88.88,0,0,0,.57-1.12.89.89,0,0,0-1.12-.58l-3.31,1.07L23,21.75a6.09,6.09,0,0,0,1.18-2.86h5.74L31.52,22a.89.89,0,0,0,.8.48,1,1,0,0,0,.4-.09.9.9,0,0,0,.39-1.21L32,18.89h2.16a.89.89,0,0,0,0-1.78ZM21.16,21.16A4.47,4.47,0,1,1,22.47,18,4.4,4.4,0,0,1,21.16,21.16Z" />
</svg>
