<svg xmlns="http://www.w3.org/2000/svg" xmlns:xlink="http://www.w3.org/1999/xlink" version="1.1" x="0px" y="0px" viewBox="0 0 24 30" style="enable-background:new 0 0 24 24;" xml:space="preserve">
	<g>
		<path d="M15.759,10.695c0-2.797-2.268-5.062-5.063-5.062c-2.796,0-5.062,2.266-5.063,5.062c0.001,2.797,2.267,5.062,5.063,5.062   c1.275,0,2.427-0.488,3.318-1.266l3.874,3.876l0.479-0.479l-3.874-3.876C15.272,13.122,15.759,11.971,15.759,10.695z    M10.696,15.081c-2.421-0.005-4.38-1.965-4.385-4.385c0.005-2.423,1.963-4.38,4.385-4.385c2.423,0.005,4.381,1.962,4.385,4.385   C15.077,13.116,13.119,15.075,10.696,15.081z" />
	</g>
</svg>
