<svg xmlns="http://www.w3.org/2000/svg" data-name="Layer 1" viewBox="0 0 100 125" fill='white' x="0px" y="0px">
	<title>
		DrawArtboard 4
	</title>
	<path d="M80.92,19.68v-.05a1.12,1.12,0,0,0-.24-.74,1.55,1.55,0,0,0-1.56-.41l-.6.19-.47.16-1,.39-.82.37-1.33.61q-1.5.69-3,1.35c-.86.36-1.71.73-2.56,1.11s-1.94.89-2.91,1.34a.63.63,0,0,0-.32.41.68.68,0,0,0,.48.84.75.75,0,0,0,.53-.07c.89-.41,1.77-.84,2.66-1.24l2.38-1,2.88-1.27c.92-.42,1.84-.86,2.77-1.26l-.07,0,.14-.06h0q.41-.16.81-.3a7.58,7.58,0,0,1,.81-.25c0,.19,0,.38,0,.57l0,.59,0,.58a1.72,1.72,0,0,0-.41-.48.94.94,0,0,0-.58-.24,1,1,0,0,0-.44.11.92.92,0,0,0-.33.29,1.51,1.51,0,0,0-.15.28c-.12.26-.22.54-.33.81-.18.44-.36.89-.55,1.33,0-.06,0-.11.08-.16-.33.74-.65,1.48-1,2.21s-.75,1.64-1.15,2.44c-.75,1.49-1.53,3-2.26,4.47-.48,1-1,2-1.45,2.95-.17.33-.33.66-.51,1l-1,1.77c-1,1.77-2.07,3.49-3.14,5.22-.53.85-1.11,1.67-1.67,2.5s-1,1.53-1.53,2.29-1,1.45-1.47,2.16c-.64.91-1.29,1.82-1.93,2.74l-2.45,3.07c-.57.72-1.16,1.43-1.74,2.15s-1.08,1.31-1.64,2-1.39,1.63-2.1,2.43l-2.4,2.67c-.58.65-1.18,1.29-1.76,1.94s-1.2,1.31-1.82,2q-2.32,2.45-4.64,4.91c-.66.71-1.34,1.41-2,2.12S37.69,77.8,37,78.5s-1.39,1.33-2.09,2c-.32.31-.67.6-1,.9l-1.53,1.36a.68.68,0,0,0,0,1,.7.7,0,0,0,1,0c.73-.64,1.45-1.28,2.16-1.93.47-.42.93-.86,1.39-1.3.74-.71,1.47-1.42,2.19-2.14s1.42-1.44,2.12-2.16c1.27-1.34,2.52-2.7,3.79-4,.72-.75,1.45-1.49,2.15-2.26l2.49-2.7c.6-.66,1.19-1.33,1.79-2s1.16-1.29,1.73-1.94l1.4-1.62.83-1,2.15-2.64c.53-.64,1-1.29,1.56-1.94l1.28-1.62c.18-.22.37-.45.54-.69l2.16-3c.54-.77,1-1.57,1.58-2.35,1-1.56,2.11-3.1,3.1-4.69.54-.86,1.08-1.72,1.59-2.59s1-1.79,1.56-2.69L71.71,37c.08-.14.15-.3.22-.45l.46-.92c.47-.94.93-1.88,1.39-2.82.38-.78.79-1.55,1.18-2.32.5-1,1-2,1.46-3,.4-.82.79-1.65,1.15-2.49s.61-1.45.9-2.17a10.73,10.73,0,0,1,.25,1.28c.09.73.13,1.47.16,2.21,0,.15,0,.31,0,.46-.12,1-.25,2-.35,3-.07.61-.14,1.22-.19,1.84s-.1,1.52-.1,2.28a7.38,7.38,0,0,0,0,1.05,4.34,4.34,0,0,0,.07.52c.05.16.1.31.14.47a.69.69,0,0,0,1.14.3,4.15,4.15,0,0,0,.27-.32,1.15,1.15,0,0,0,.13-.48c0-.16,0-.31.06-.47s0-.47.07-.7c0-.5.07-1,.1-1.5.06-1,0-2.05,0-3.07s0-1.83,0-2.74a.76.76,0,0,1,0-.15l.24-1.94c.12-.95.23-1.91.29-2.86,0-.52.06-1.05.08-1.56,0-.25,0-.49,0-.74m-1.16.16-.07,0,.07,0m-.26-.05h0m-.8,15.47,0,0,0,0m0,.1v0m-.85-15,.08,0h0l-.07,0" />
</svg>
